<svg width="231" height="61" viewBox="0 0 231 61" fill="none" xmlns="http://www.w3.org/2000/svg">
    <path d="M1.28662 54.1826C14.5053 50.8418 28.2523 49.745 41.7275 48.9517C64.3176 47.6219 87.0783 47.3039 109.664 48.8329C129.898 50.2026 149.859 53.4984 170.074 50.735C175.251 50.0274 182.235 49.9028 187.335 49.9028" stroke="#FEFBEE" stroke-width="10" stroke-linejoin="round"/>
    <path d="M5.92862 31.548H11.8026V33.814H3.33262V19.536H5.92862V31.548ZM18.4057 22.836C19.1244 22.836 19.799 22.9533 20.4297 23.188C21.0604 23.408 21.603 23.7526 22.0577 24.222C23.0697 25.2486 23.5757 26.6713 23.5757 28.49C23.5757 30.2793 23.0697 31.6873 22.0577 32.714C21.1484 33.6526 19.931 34.122 18.4057 34.122C16.8804 34.122 15.6484 33.6526 14.7097 32.714C13.6977 31.702 13.1917 30.294 13.1917 28.49C13.1917 26.6566 13.6977 25.234 14.7097 24.222C15.6337 23.298 16.8657 22.836 18.4057 22.836ZM20.9797 28.468C20.9797 27.3386 20.7597 26.4953 20.3197 25.938C19.8797 25.366 19.2637 25.08 18.4717 25.08C17.6944 25.08 17.0564 25.366 16.5577 25.938C16.059 26.4953 15.8097 27.3386 15.8097 28.468C15.8097 29.5973 16.0297 30.448 16.4697 31.02C16.9244 31.5773 17.5404 31.856 18.3177 31.856C19.095 31.856 19.733 31.5773 20.2317 31.02C20.7304 30.448 20.9797 29.5973 20.9797 28.468ZM30.7347 22.836C31.4093 22.836 32.0107 22.9533 32.5387 23.188C33.0813 23.408 33.536 23.7013 33.9027 24.068C34.636 24.772 35.0687 25.6593 35.2007 26.73L32.5827 26.796C32.4653 26.3266 32.2453 25.938 31.9227 25.63C31.6147 25.322 31.2553 25.168 30.8447 25.168C30.434 25.168 30.082 25.234 29.7887 25.366C29.4953 25.4833 29.2387 25.674 29.0187 25.938C28.52 26.554 28.2707 27.4046 28.2707 28.49C28.2707 29.5753 28.5053 30.3966 28.9747 30.954C29.444 31.4966 30.0087 31.768 30.6687 31.768C31.3433 31.768 31.8273 31.614 32.1207 31.306C32.4287 30.9833 32.5827 30.5506 32.5827 30.008H35.2007C35.2007 31.1813 34.812 32.1566 34.0347 32.934C33.2427 33.726 32.1353 34.122 30.7127 34.122C29.3047 34.122 28.124 33.6086 27.1707 32.582C26.1587 31.482 25.6527 30.1106 25.6527 28.468C25.6527 26.7373 26.1587 25.3513 27.1707 24.31C28.124 23.3273 29.312 22.836 30.7347 22.836ZM41.8507 27.566C42.7013 27.566 43.684 27.7053 44.7987 27.984V26.928C44.7987 26.18 44.6447 25.63 44.3367 25.278C44.0433 24.9113 43.552 24.728 42.8627 24.728C42.188 24.728 41.6673 24.8673 41.3007 25.146C40.934 25.41 40.7507 25.7913 40.7507 26.29H37.9127C37.9127 25.0726 38.338 24.1926 39.1887 23.65C40.054 23.1073 41.2567 22.836 42.7967 22.836C44.9967 22.836 46.4193 23.606 47.0647 25.146C47.2847 25.674 47.3947 26.2973 47.3947 27.016V33.814H45.1287L44.9307 32.384C44.2413 33.5426 43.1853 34.122 41.7627 34.122C40.384 34.122 39.3133 33.7846 38.5507 33.11C37.8467 32.4646 37.4947 31.6506 37.4947 30.668C37.4947 29.6706 37.8833 28.908 38.6607 28.38C39.438 27.8373 40.5013 27.566 41.8507 27.566ZM44.7987 29.634C43.9333 29.3993 43.1267 29.282 42.3787 29.282C40.9707 29.282 40.2667 29.7513 40.2667 30.69C40.2667 31.086 40.428 31.4306 40.7507 31.724C41.0733 32.0026 41.5867 32.142 42.2907 32.142C43.0093 32.142 43.596 31.9073 44.0507 31.438C44.52 30.954 44.7693 30.3526 44.7987 29.634ZM57.2063 33.55C56.2383 33.9313 55.4757 34.122 54.9183 34.122C54.361 34.122 53.8697 34.056 53.4443 33.924C53.0337 33.792 52.667 33.594 52.3443 33.33C51.6697 32.7286 51.3323 31.9 51.3323 30.844V24.86H49.8363V23.122H51.3323V20.306H53.9283V23.122H56.8323V24.86H53.9283V30.756C53.9283 31.636 54.3463 32.076 55.1823 32.076C55.6077 32.076 56.1577 31.9586 56.8323 31.724L57.2063 33.55ZM60.078 23.1H62.674V33.814H60.078V23.1ZM59.77 19.668C59.77 19.1986 59.9093 18.832 60.188 18.568C60.4667 18.2893 60.8627 18.15 61.376 18.15C61.8747 18.15 62.2633 18.2893 62.542 18.568C62.8353 18.832 62.982 19.1986 62.982 19.668C62.982 20.1373 62.8353 20.5113 62.542 20.79C62.2633 21.054 61.8747 21.186 61.376 21.186C60.8627 21.186 60.4667 21.054 60.188 20.79C59.9093 20.5113 59.77 20.1373 59.77 19.668ZM71.2788 22.836C71.9974 22.836 72.6721 22.9533 73.3028 23.188C73.9334 23.408 74.4761 23.7526 74.9308 24.222C75.9428 25.2486 76.4488 26.6713 76.4488 28.49C76.4488 30.2793 75.9428 31.6873 74.9308 32.714C74.0214 33.6526 72.8041 34.122 71.2788 34.122C69.7534 34.122 68.5214 33.6526 67.5828 32.714C66.5708 31.702 66.0648 30.294 66.0648 28.49C66.0648 26.6566 66.5708 25.234 67.5828 24.222C68.5068 23.298 69.7388 22.836 71.2788 22.836ZM73.8528 28.468C73.8528 27.3386 73.6328 26.4953 73.1928 25.938C72.7528 25.366 72.1368 25.08 71.3448 25.08C70.5674 25.08 69.9294 25.366 69.4308 25.938C68.9321 26.4953 68.6828 27.3386 68.6828 28.468C68.6828 29.5973 68.9028 30.448 69.3428 31.02C69.7974 31.5773 70.4134 31.856 71.1908 31.856C71.9681 31.856 72.6061 31.5773 73.1048 31.02C73.6034 30.448 73.8528 29.5973 73.8528 28.468ZM82.0897 24.97C82.7937 23.5473 83.923 22.836 85.4777 22.836C86.7977 22.836 87.7877 23.2686 88.4477 24.134C89.1224 24.9993 89.4597 26.1433 89.4597 27.566V33.814H86.8637V27.566C86.8637 26.774 86.673 26.18 86.2917 25.784C85.9104 25.3733 85.375 25.168 84.6857 25.168C83.9964 25.168 83.4024 25.476 82.9037 26.092C82.4197 26.708 82.163 27.632 82.1337 28.864V33.814H79.5377V23.122H81.8037L82.0897 24.97ZM96.8952 19.536H108.335V21.78H103.913V33.814H101.317V21.78H96.8952V19.536ZM111.245 25.234C111.89 23.694 112.858 22.924 114.149 22.924C114.398 22.924 114.714 22.9753 115.095 23.078L115.051 25.674C114.64 25.586 114.237 25.542 113.841 25.542C112.11 25.542 111.245 26.7373 111.245 29.128V33.814H108.649V23.1H111.245V25.234ZM121.321 27.566C122.172 27.566 123.155 27.7053 124.269 27.984V26.928C124.269 26.18 124.115 25.63 123.807 25.278C123.514 24.9113 123.023 24.728 122.333 24.728C121.659 24.728 121.138 24.8673 120.771 25.146C120.405 25.41 120.221 25.7913 120.221 26.29H117.383C117.383 25.0726 117.809 24.1926 118.659 23.65C119.525 23.1073 120.727 22.836 122.267 22.836C124.467 22.836 125.89 23.606 126.535 25.146C126.755 25.674 126.865 26.2973 126.865 27.016V33.814H124.599L124.401 32.384C123.712 33.5426 122.656 34.122 121.233 34.122C119.855 34.122 118.784 33.7846 118.021 33.11C117.317 32.4646 116.965 31.6506 116.965 30.668C116.965 29.6706 117.354 28.908 118.131 28.38C118.909 27.8373 119.972 27.566 121.321 27.566ZM124.269 29.634C123.404 29.3993 122.597 29.282 121.849 29.282C120.441 29.282 119.737 29.7513 119.737 30.69C119.737 31.086 119.899 31.4306 120.221 31.724C120.544 32.0026 121.057 32.142 121.761 32.142C122.48 32.142 123.067 31.9073 123.521 31.438C123.991 30.954 124.24 30.3526 124.269 29.634ZM134.719 22.836C135.394 22.836 135.995 22.9533 136.523 23.188C137.066 23.408 137.52 23.7013 137.887 24.068C138.62 24.772 139.053 25.6593 139.185 26.73L136.567 26.796C136.45 26.3266 136.23 25.938 135.907 25.63C135.599 25.322 135.24 25.168 134.829 25.168C134.418 25.168 134.066 25.234 133.773 25.366C133.48 25.4833 133.223 25.674 133.003 25.938C132.504 26.554 132.255 27.4046 132.255 28.49C132.255 29.5753 132.49 30.3966 132.959 30.954C133.428 31.4966 133.993 31.768 134.653 31.768C135.328 31.768 135.812 31.614 136.105 31.306C136.413 30.9833 136.567 30.5506 136.567 30.008H139.185C139.185 31.1813 138.796 32.1566 138.019 32.934C137.227 33.726 136.12 34.122 134.697 34.122C133.289 34.122 132.108 33.6086 131.155 32.582C130.143 31.482 129.637 30.1106 129.637 28.468C129.637 26.7373 130.143 25.3513 131.155 24.31C132.108 23.3273 133.296 22.836 134.719 22.836ZM146.099 28.6L144.911 29.59V33.814H142.315V18.722H144.911V26.884L149.135 23.122H152.655L147.925 27.082L152.919 33.814H149.751L146.099 28.6ZM162.427 24.398C162.794 24.8673 163.065 25.41 163.241 26.026C163.432 26.642 163.527 27.2066 163.527 27.72C163.527 28.2333 163.498 28.6953 163.439 29.106H156.531C156.561 29.9713 156.773 30.6753 157.169 31.218C157.565 31.7606 158.167 32.032 158.973 32.032C160.044 32.032 160.682 31.5626 160.887 30.624H163.505C163.329 31.6946 162.838 32.538 162.031 33.154C161.195 33.7993 160.176 34.122 158.973 34.122C157.565 34.122 156.385 33.6086 155.431 32.582C154.449 31.5113 153.957 30.14 153.957 28.468C153.957 26.752 154.449 25.3733 155.431 24.332C156.37 23.3346 157.551 22.836 158.973 22.836C160.455 22.836 161.606 23.3566 162.427 24.398ZM158.995 24.904C158.262 24.904 157.69 25.146 157.279 25.63C156.869 26.0993 156.627 26.708 156.553 27.456H161.107C161.107 26.2973 160.741 25.52 160.007 25.124C159.729 24.9773 159.391 24.904 158.995 24.904ZM169.231 25.234C169.877 23.694 170.845 22.924 172.135 22.924C172.385 22.924 172.7 22.9753 173.081 23.078L173.037 25.674C172.627 25.586 172.223 25.542 171.827 25.542C170.097 25.542 169.231 26.7373 169.231 29.128V33.814H166.635V23.1H169.231V25.234Z" fill="#2B2839"/>
    <path d="M225.779 27.9614C228.378 18.2645 222.624 8.29684 212.927 5.69836C203.23 3.10029 193.264 8.85582 190.666 18.5527C189.351 23.4577 190.005 29.6036 191.957 34.7736L199.529 55.7028L216.556 41.3613C221.683 37.0534 224.466 32.8634 225.779 27.9614Z" fill="#2B2839"/>
    <circle cx="208.343" cy="22.8077" r="8.17129" transform="rotate(15 208.343 22.8077)" fill="#FEFBEE"/>
    </svg>
    