<svg width="268" height="267" viewBox="0 0 268 267" fill="none" xmlns="http://www.w3.org/2000/svg">
    <path fill-rule="evenodd" clip-rule="evenodd" d="M208.708 2.13437C209.627 2.55019 210.442 3.16489 211.095 3.93408C211.747 4.70328 212.221 5.60777 212.481 6.58225L261.851 190.833C262.258 192.354 262.125 193.968 261.475 195.402C260.826 196.836 259.7 198.001 258.288 198.699L196.011 229.492C195.205 229.889 194.328 230.124 193.432 230.183L125.462 234.572L64.4037 264.756C63.5005 265.202 62.5095 265.443 61.5022 265.46C60.4948 265.478 59.4961 265.271 58.5781 264.856C57.6601 264.441 56.8456 263.827 56.1932 263.06C55.5409 262.292 55.067 261.389 54.8056 260.416L5.4359 76.1655C5.02936 74.6446 5.16212 73.0298 5.81162 71.5957C6.46112 70.1617 7.58726 68.9968 8.99858 68.2992L71.2759 37.5064C72.0817 37.1081 72.9584 36.8732 73.8554 36.8152L141.825 32.4263L202.883 2.24228C203.786 1.79472 204.776 1.55291 205.784 1.53425C206.791 1.51559 207.79 1.72055 208.708 2.13437V2.13437ZM138.489 46.2973L83.025 49.8744L128.798 220.701L184.262 217.124L138.489 46.2973ZM197.423 213.597L247.244 188.963L201.472 18.1367L151.65 42.7709L197.423 213.597ZM115.637 224.227L69.8643 53.4008L20.0425 78.035L65.8153 248.861L115.637 224.227Z" fill="#2B2839"/>
    </svg>
    