<svg width="288" height="287" viewBox="0 0 288 287" fill="none" xmlns="http://www.w3.org/2000/svg">
    <path d="M124.767 205.17C147.106 213.85 171.899 213.776 194.186 204.961C216.473 196.147 234.61 179.242 244.968 157.63C255.326 136.017 257.142 111.291 250.053 88.3966C242.963 65.5027 227.49 46.1299 206.73 34.154C185.97 22.1781 161.454 18.4824 138.086 23.8062C114.718 29.13 94.2224 43.0807 80.6988 62.8672C67.1751 82.6538 61.6211 106.817 65.1479 130.523C68.6747 154.228 81.0223 175.728 99.7203 190.721L99.7165 190.707C99.2648 191.282 98.849 191.878 98.4624 192.527L58.633 261.514C56.6913 264.874 56.164 268.868 57.1671 272.618C58.1703 276.367 60.6217 279.564 63.9821 281.505C67.3425 283.447 71.3366 283.974 75.0857 282.971C78.8349 281.968 82.0319 279.517 83.9736 276.156L123.803 207.17C124.179 206.527 124.506 205.857 124.781 205.166L124.767 205.17ZM180.067 194.26C169.86 196.995 159.214 197.693 148.737 196.313C138.26 194.934 128.158 191.505 119.007 186.221C109.855 180.937 101.834 173.903 95.4011 165.52C88.9682 157.136 84.2496 147.568 81.5146 137.361C78.7796 127.153 78.0818 116.508 79.4611 106.031C80.8404 95.5541 84.2697 85.4516 89.5533 76.3002C94.8369 67.1487 101.871 59.1276 110.255 52.6947C118.638 46.2618 128.207 41.5432 138.414 38.8082C159.028 33.2847 180.992 36.1763 199.474 46.847C217.956 57.5176 231.443 75.0933 236.966 95.7074C242.49 116.322 239.598 138.286 228.927 156.768C218.257 175.25 200.681 188.736 180.067 194.26V194.26Z" fill="#2B2839"/>
    </svg>
    